<?xml version="1.0" encoding="utf-8"?>
<!-- Generator: Adobe Illustrator 25.0.0, SVG Export Plug-In . SVG Version: 6.00 Build 0)  -->
<svg version="1.1" id="Layer_1" xmlns="http://www.w3.org/2000/svg" xmlns:xlink="http://www.w3.org/1999/xlink" x="0px" y="0px"
	 viewBox="0 0 32 32" style="enable-background:new 0 0 32 32;" xml:space="preserve">
<style type="text/css">
	.st0{fill:#556EF8;}
</style>
<g>
	<path class="st0" d="M30.03,21.7c0-0.02,0-0.05,0-0.07h0c-0.09-8.76-8.77-9.17-8.77-9.17H1.97v9.17v0.14v9.17h19.29
		c0,0,8.68-0.41,8.77-9.17h0C30.03,21.74,30.03,21.72,30.03,21.7z"/>
	<path class="st0" d="M30.03,10.3c0-0.02,0-0.05,0-0.07h0c-0.09-8.76-8.77-9.17-8.77-9.17H1.97v9.17v0.14v9.17h19.29
		c0,0,8.68-0.41,8.77-9.17h0C30.03,10.35,30.03,10.33,30.03,10.3z"/>
</g>
</svg>
